<svg width="61" height="60" viewBox="0 0 61 60" fill="none" xmlns="http://www.w3.org/2000/svg">
<path d="M21.2689 51.4987L27.798 56.9549H44.1321L18.5033 35.5338C17.5842 34.7656 16.5683 34.2651 15.5138 34.0611C14.4594 33.8571 13.3872 33.9536 12.3588 34.345C11.3305 34.7364 10.3662 35.4151 9.52149 36.342C8.67674 37.2689 7.96814 38.4258 7.43638 39.7462L0.5 56.9549H14.0013L15.2812 53.7491C15.5703 53.0368 15.9548 52.4132 16.4126 51.9143C16.8703 51.4153 17.3924 51.0508 17.9487 50.8417C18.5051 50.6326 19.0848 50.583 19.6545 50.6958C20.2243 50.8085 20.7729 51.0814 21.2689 51.4987V51.4987Z" fill="#6D55FF"/>
<path d="M60.5001 59.9999L51.3575 37.3157L38.7377 5.99512L31.9625 22.8063C30.894 25.4571 30.6021 28.6064 31.1506 31.5649C31.6992 34.5233 33.0434 37.0499 34.8892 38.5916L60.5001 59.9999Z" fill="#5E92FD"/>
<path d="M21.3638 2.73805L16.7646 14.0666C16.3757 15.2013 16.1772 16.4504 16.1848 17.7143C16.1924 18.9783 16.4058 20.2222 16.8082 21.3472L21.0559 33.2403L33.1471 0H24.4206C23.7835 0.00278412 23.1596 0.260666 22.6194 0.744509C22.0793 1.22835 21.6443 1.91887 21.3638 2.73805Z" fill="#CA64BF"/>
</svg>
