<svg width="217" height="61" viewBox="0 0 217 61" fill="none" xmlns="http://www.w3.org/2000/svg">
<path d="M78.9201 10.2478V20.8558C78.9201 21.3838 78.9361 21.8718 78.9681 22.3198C79.0161 22.7518 79.1121 23.1198 79.2561 23.4238C79.4161 23.7278 79.6481 23.9678 79.9521 24.1438C80.2561 24.3038 80.6721 24.3838 81.2001 24.3838C81.7281 24.3838 82.1441 24.3038 82.4481 24.1438C82.7521 23.9678 82.9761 23.7278 83.1201 23.4238C83.2801 23.1198 83.3761 22.7518 83.4081 22.3198C83.4561 21.8718 83.4801 21.3838 83.4801 20.8558V10.2478H87.0801V20.3758C87.0801 21.5278 87.0001 22.5358 86.8401 23.3998C86.6961 24.2638 86.4081 24.9838 85.9761 25.5598C85.5441 26.1358 84.9441 26.5678 84.1761 26.8558C83.4081 27.1438 82.4161 27.2878 81.2001 27.2878C79.9841 27.2878 78.9921 27.1438 78.2241 26.8558C77.4561 26.5678 76.8561 26.1358 76.4241 25.5598C75.9921 24.9838 75.6961 24.2638 75.5361 23.3998C75.3921 22.5358 75.3201 21.5278 75.3201 20.3758V10.2478H78.9201Z" fill="white"/>
<path d="M90.1907 26.9998V24.3358H93.7907V12.9118H90.1907V10.2478H100.991V12.9118H97.3907V24.3358H100.991V26.9998H90.1907Z" fill="white"/>
<path d="M104.533 30.3118L112.237 8.75977H115.429L107.725 30.3118H104.533Z" fill="white"/>
<path d="M122.092 10.2478V20.8558C122.092 21.3838 122.108 21.8718 122.14 22.3198C122.188 22.7518 122.284 23.1198 122.428 23.4238C122.588 23.7278 122.82 23.9678 123.124 24.1438C123.428 24.3038 123.844 24.3838 124.372 24.3838C124.9 24.3838 125.316 24.3038 125.62 24.1438C125.924 23.9678 126.148 23.7278 126.292 23.4238C126.452 23.1198 126.548 22.7518 126.58 22.3198C126.628 21.8718 126.652 21.3838 126.652 20.8558V10.2478H130.252V20.3758C130.252 21.5278 130.172 22.5358 130.012 23.3998C129.868 24.2638 129.58 24.9838 129.148 25.5598C128.716 26.1358 128.116 26.5678 127.348 26.8558C126.58 27.1438 125.588 27.2878 124.372 27.2878C123.156 27.2878 122.164 27.1438 121.396 26.8558C120.628 26.5678 120.028 26.1358 119.596 25.5598C119.164 24.9838 118.868 24.2638 118.708 23.3998C118.564 22.5358 118.492 21.5278 118.492 20.3758V10.2478H122.092Z" fill="white"/>
<path d="M145.747 26.9998H141.643L139.915 23.6638L138.739 21.0238H138.523L137.323 23.6638L135.547 26.9998H131.779L136.483 18.3358L132.091 10.2478H136.195L137.563 12.9118L138.787 15.5998H138.979L140.227 12.9118L141.667 10.2478H145.435L141.043 18.3838L145.747 26.9998Z" fill="white"/>
<path d="M75.5361 33.2478H80.9361C83.1921 33.2478 84.8641 33.9678 85.9521 35.4078C87.0401 36.8478 87.5841 38.9198 87.5841 41.6238C87.5841 44.3278 87.0401 46.3998 85.9521 47.8398C84.8641 49.2798 83.1921 49.9998 80.9361 49.9998H75.5361V33.2478ZM80.6961 47.1678C81.7681 47.1678 82.5521 46.8238 83.0481 46.1358C83.5441 45.4478 83.7921 44.4478 83.7921 43.1358V40.0878C83.7921 38.7918 83.5441 37.7998 83.0481 37.1118C82.5521 36.4238 81.7681 36.0798 80.6961 36.0798H79.0881V47.1678H80.6961Z" fill="white"/>
<path d="M95.9267 50.2878C93.8467 50.2878 92.2707 49.7118 91.1987 48.5598C90.1267 47.4078 89.5907 45.8398 89.5907 43.8558C89.5907 42.8478 89.7267 41.9438 89.9987 41.1438C90.2867 40.3278 90.6867 39.6398 91.1987 39.0798C91.7267 38.5038 92.3587 38.0718 93.0947 37.7838C93.8467 37.4798 94.6867 37.3278 95.6147 37.3278C96.5427 37.3278 97.3747 37.4798 98.1107 37.7838C98.8467 38.0718 99.4707 38.4878 99.9827 39.0318C100.495 39.5758 100.887 40.2398 101.159 41.0238C101.447 41.7918 101.591 42.6558 101.591 43.6158V44.6718H93.1187V44.8878C93.1187 45.6878 93.3667 46.3358 93.8627 46.8318C94.3587 47.3118 95.0867 47.5518 96.0467 47.5518C96.7827 47.5518 97.4147 47.4158 97.9427 47.1438C98.4707 46.8558 98.9267 46.4798 99.3107 46.0158L101.231 48.1038C100.751 48.6958 100.079 49.2078 99.2147 49.6398C98.3507 50.0718 97.2547 50.2878 95.9267 50.2878ZM95.6387 39.8718C94.8707 39.8718 94.2547 40.1118 93.7907 40.5918C93.3427 41.0558 93.1187 41.6878 93.1187 42.4878V42.6798H98.1107V42.4878C98.1107 41.6718 97.8867 41.0318 97.4387 40.5678C97.0067 40.1038 96.4067 39.8718 95.6387 39.8718Z" fill="white"/>
<path d="M107.869 49.9998L103.429 37.6158H107.173L108.781 42.9198L109.957 47.0478H110.149L111.325 42.9198L112.933 37.6158H116.533L112.093 49.9998H107.869Z" fill="white"/>
<path d="M124.708 50.2878C122.628 50.2878 121.052 49.7118 119.98 48.5598C118.908 47.4078 118.372 45.8398 118.372 43.8558C118.372 42.8478 118.508 41.9438 118.78 41.1438C119.068 40.3278 119.468 39.6398 119.98 39.0798C120.508 38.5038 121.14 38.0718 121.876 37.7838C122.628 37.4798 123.468 37.3278 124.396 37.3278C125.324 37.3278 126.156 37.4798 126.892 37.7838C127.628 38.0718 128.252 38.4878 128.764 39.0318C129.276 39.5758 129.668 40.2398 129.94 41.0238C130.228 41.7918 130.372 42.6558 130.372 43.6158V44.6718H121.9V44.8878C121.9 45.6878 122.148 46.3358 122.644 46.8318C123.14 47.3118 123.868 47.5518 124.828 47.5518C125.564 47.5518 126.196 47.4158 126.724 47.1438C127.252 46.8558 127.708 46.4798 128.092 46.0158L130.012 48.1038C129.532 48.6958 128.86 49.2078 127.996 49.6398C127.132 50.0718 126.036 50.2878 124.708 50.2878ZM124.42 39.8718C123.652 39.8718 123.036 40.1118 122.572 40.5918C122.124 41.0558 121.9 41.6878 121.9 42.4878V42.6798H126.892V42.4878C126.892 41.6718 126.668 41.0318 126.22 40.5678C125.788 40.1038 125.188 39.8718 124.42 39.8718Z" fill="white"/>
<path d="M133.195 47.2398H136.987V34.9998H133.195V32.2398H140.539V47.2398H144.331V49.9998H133.195V47.2398Z" fill="white"/>
<path d="M153.153 50.2878C152.193 50.2878 151.329 50.1438 150.561 49.8558C149.793 49.5518 149.137 49.1198 148.593 48.5598C148.065 47.9998 147.657 47.3198 147.369 46.5198C147.081 45.7198 146.937 44.8158 146.937 43.8078C146.937 42.7998 147.081 41.8958 147.369 41.0958C147.657 40.2958 148.065 39.6158 148.593 39.0558C149.137 38.4958 149.793 38.0718 150.561 37.7838C151.329 37.4798 152.193 37.3278 153.153 37.3278C154.113 37.3278 154.977 37.4798 155.745 37.7838C156.513 38.0718 157.161 38.4958 157.689 39.0558C158.233 39.6158 158.649 40.2958 158.937 41.0958C159.225 41.8958 159.369 42.7998 159.369 43.8078C159.369 44.8158 159.225 45.7198 158.937 46.5198C158.649 47.3198 158.233 47.9998 157.689 48.5598C157.161 49.1198 156.513 49.5518 155.745 49.8558C154.977 50.1438 154.113 50.2878 153.153 50.2878ZM153.153 47.6478C153.953 47.6478 154.577 47.3998 155.025 46.9038C155.473 46.4078 155.697 45.7038 155.697 44.7918V42.8238C155.697 41.9118 155.473 41.2078 155.025 40.7118C154.577 40.2158 153.953 39.9678 153.153 39.9678C152.353 39.9678 151.729 40.2158 151.281 40.7118C150.833 41.2078 150.609 41.9118 150.609 42.8238V44.7918C150.609 45.7038 150.833 46.4078 151.281 46.9038C151.729 47.3998 152.353 47.6478 153.153 47.6478Z" fill="white"/>
<path d="M161.76 37.6158H165.312V39.8718H165.48C165.784 39.1358 166.224 38.5278 166.8 38.0478C167.376 37.5678 168.16 37.3278 169.152 37.3278C169.84 37.3278 170.464 37.4558 171.024 37.7118C171.6 37.9678 172.088 38.3598 172.488 38.8878C172.904 39.4158 173.224 40.0878 173.448 40.9038C173.688 41.7198 173.808 42.6878 173.808 43.8078C173.808 44.9278 173.688 45.8958 173.448 46.7118C173.224 47.5278 172.904 48.1998 172.488 48.7278C172.088 49.2558 171.6 49.6478 171.024 49.9038C170.464 50.1598 169.84 50.2878 169.152 50.2878C168.16 50.2878 167.376 50.0558 166.8 49.5918C166.224 49.1118 165.784 48.4958 165.48 47.7438H165.312V54.7998H161.76V37.6158ZM167.616 47.5278C168.416 47.5278 169.032 47.2878 169.464 46.8078C169.896 46.3118 170.112 45.6318 170.112 44.7678V42.8478C170.112 41.9838 169.896 41.3118 169.464 40.8318C169.032 40.3358 168.416 40.0878 167.616 40.0878C166.992 40.0878 166.448 40.2398 165.984 40.5438C165.536 40.8478 165.312 41.3278 165.312 41.9838V45.6318C165.312 46.2878 165.536 46.7678 165.984 47.0718C166.448 47.3758 166.992 47.5278 167.616 47.5278Z" fill="white"/>
<path d="M182.27 50.2878C180.19 50.2878 178.614 49.7118 177.542 48.5598C176.47 47.4078 175.934 45.8398 175.934 43.8558C175.934 42.8478 176.07 41.9438 176.342 41.1438C176.63 40.3278 177.03 39.6398 177.542 39.0798C178.07 38.5038 178.702 38.0718 179.438 37.7838C180.19 37.4798 181.03 37.3278 181.958 37.3278C182.886 37.3278 183.718 37.4798 184.454 37.7838C185.19 38.0718 185.814 38.4878 186.326 39.0318C186.838 39.5758 187.23 40.2398 187.502 41.0238C187.79 41.7918 187.934 42.6558 187.934 43.6158V44.6718H179.462V44.8878C179.462 45.6878 179.71 46.3358 180.206 46.8318C180.702 47.3118 181.43 47.5518 182.39 47.5518C183.126 47.5518 183.758 47.4158 184.286 47.1438C184.814 46.8558 185.27 46.4798 185.654 46.0158L187.574 48.1038C187.094 48.6958 186.422 49.2078 185.558 49.6398C184.694 50.0718 183.598 50.2878 182.27 50.2878ZM181.982 39.8718C181.214 39.8718 180.598 40.1118 180.134 40.5918C179.686 41.0558 179.462 41.6878 179.462 42.4878V42.6798H184.454V42.4878C184.454 41.6718 184.23 41.0318 183.782 40.5678C183.35 40.1038 182.75 39.8718 181.982 39.8718Z" fill="white"/>
<path d="M190.901 47.2398H193.757V40.3758H190.901V37.6158H197.309V41.1198H197.477C197.589 40.6718 197.741 40.2398 197.933 39.8238C198.141 39.3918 198.397 39.0158 198.701 38.6958C199.021 38.3598 199.405 38.0958 199.853 37.9038C200.301 37.7118 200.829 37.6158 201.437 37.6158H202.613V40.8798H199.973C199.093 40.8798 198.429 41.1438 197.981 41.6718C197.533 42.1838 197.309 42.8158 197.309 43.5678V47.2398H201.389V49.9998H190.901V47.2398Z" fill="white"/>
<path d="M210.572 50.2878C209.196 50.2878 207.996 50.0798 206.972 49.6638C205.964 49.2478 205.204 48.6798 204.692 47.9598L206.684 46.1118C207.164 46.6398 207.724 47.0558 208.364 47.3598C209.02 47.6478 209.764 47.7918 210.596 47.7918C211.3 47.7918 211.852 47.6878 212.252 47.4798C212.652 47.2558 212.852 46.9198 212.852 46.4718C212.852 46.1198 212.716 45.8798 212.444 45.7518C212.172 45.6078 211.796 45.4958 211.316 45.4158L209.324 45.1038C208.764 45.0238 208.244 44.9038 207.764 44.7438C207.284 44.5678 206.868 44.3358 206.516 44.0478C206.164 43.7598 205.884 43.4078 205.676 42.9918C205.468 42.5758 205.364 42.0718 205.364 41.4798C205.364 40.1838 205.86 39.1678 206.852 38.4318C207.844 37.6958 209.236 37.3278 211.028 37.3278C212.244 37.3278 213.276 37.4958 214.124 37.8318C214.988 38.1518 215.676 38.6158 216.188 39.2238L214.412 41.2398C214.044 40.8398 213.572 40.5038 212.996 40.2318C212.42 39.9598 211.724 39.8238 210.908 39.8238C209.532 39.8238 208.844 40.2398 208.844 41.0718C208.844 41.4398 208.98 41.6958 209.252 41.8398C209.524 41.9678 209.9 42.0718 210.38 42.1518L212.348 42.4638C212.908 42.5438 213.428 42.6718 213.908 42.8478C214.388 43.0078 214.804 43.2318 215.156 43.5198C215.524 43.8078 215.812 44.1598 216.02 44.5758C216.228 44.9918 216.332 45.4958 216.332 46.0878C216.332 47.3838 215.828 48.4078 214.82 49.1598C213.828 49.9118 212.412 50.2878 210.572 50.2878Z" fill="white"/>
<path d="M20.73 51.5395L27.0897 57.0001H43L18.0361 35.5619C17.1409 34.7931 16.1514 34.2922 15.1243 34.0881C14.0972 33.8839 13.0528 33.9804 12.0511 34.3722C11.0495 34.7639 10.1102 35.4431 9.28742 36.3708C8.46459 37.2984 7.77437 38.4562 7.25641 39.7777L0.5 57.0001H13.651L14.8977 53.7917C15.1793 53.0788 15.5538 52.4547 15.9997 51.9554C16.4456 51.4561 16.9541 51.0913 17.496 50.882C18.0379 50.6728 18.6026 50.6231 19.1575 50.7359C19.7125 50.8488 20.2469 51.1218 20.73 51.5395V51.5395Z" fill="#6D55FF"/>
<path d="M58.9432 60.0477L50.0378 37.3455L37.7455 6L31.146 22.8245C30.1053 25.4775 29.821 28.6293 30.3553 31.5901C30.8896 34.5509 32.199 37.0795 33.9968 38.6224L58.9432 60.0477Z" fill="#5E92FD"/>
<path d="M20.8225 2.74023L16.3426 14.0778C15.9638 15.2134 15.7704 16.4635 15.7778 17.7284C15.7852 18.9934 15.9931 20.2383 16.3851 21.3642L20.5226 33.2668L32.3 0H23.8C23.1793 0.00278634 22.5716 0.260873 22.0455 0.745101C21.5193 1.22933 21.0957 1.9204 20.8225 2.74023Z" fill="#CA64BF"/>
</svg>
