<?xml version="1.0" standalone="no"?>
<!DOCTYPE svg PUBLIC "-//W3C//DTD SVG 20010904//EN"
 "http://www.w3.org/TR/2001/REC-SVG-20010904/DTD/svg10.dtd">
<svg version="1.0" xmlns="http://www.w3.org/2000/svg"
 width="976.000000pt" height="976.000000pt" viewBox="0 0 976.000000 976.000000"
 preserveAspectRatio="xMidYMid meet">
<metadata>
Created by potrace 1.14, written by Peter Selinger 2001-2017
</metadata>
<g transform="translate(0.000000,976.000000) scale(0.100000,-0.100000)"
fill="#000000" stroke="none">
<path d="M3802 9664 c-152 -40 -289 -186 -374 -398 -16 -39 -35 -84 -43 -101
-7 -16 -11 -33 -9 -37 3 -4 1 -8 -5 -8 -5 0 -13 -14 -16 -32 -4 -18 -11 -39
-16 -48 -10 -18 -29 -64 -62 -145 -13 -33 -28 -69 -32 -80 -5 -11 -9 -23 -10
-27 -2 -5 -4 -11 -5 -15 -1 -5 -2 -11 -2 -15 1 -3 -5 -12 -13 -18 -8 -7 -15
-18 -15 -25 0 -12 -113 -297 -131 -329 -6 -10 -12 -26 -14 -35 -3 -13 -33 -90
-75 -186 -4 -11 -15 -38 -23 -60 -23 -59 -136 -335 -152 -370 -7 -16 -17 -42
-20 -58 -4 -15 -11 -30 -16 -33 -5 -3 -9 -14 -9 -25 0 -10 -5 -19 -12 -19 -6
0 -9 -3 -5 -6 3 -3 -12 -48 -34 -101 -39 -93 -68 -184 -74 -233 -2 -14 -4 -25
-5 -25 -2 0 -6 -23 -14 -70 -2 -16 -5 -30 -6 -30 -13 0 -19 -432 -8 -500 4
-22 10 -58 13 -80 17 -103 53 -245 66 -260 5 -5 9 -15 9 -23 0 -11 48 -149 77
-222 7 -18 10 -29 17 -56 2 -12 9 -30 15 -40 10 -18 87 -232 95 -264 3 -8 9
-28 16 -45 6 -16 11 -30 10 -30 -1 0 4 -13 10 -30 19 -48 91 -249 94 -260 1
-5 4 -14 7 -20 11 -17 43 -120 41 -127 -1 -5 2 -8 6 -8 5 0 9 -6 9 -12 1 -7
15 -51 32 -98 18 -47 45 -123 61 -170 17 -47 33 -92 37 -100 3 -8 7 -19 8 -25
0 -5 4 -17 8 -25 3 -8 34 -91 67 -185 63 -175 80 -210 80 -162 0 15 5 27 12
27 6 0 8 3 5 7 -4 3 -3 11 1 17 5 6 19 43 31 81 12 39 29 82 37 97 8 15 14 30
13 35 -1 4 3 22 10 38 7 17 51 136 97 265 47 129 97 267 112 305 14 39 27 75
28 80 1 6 16 46 34 90 18 44 33 87 34 95 2 8 10 33 20 54 9 22 19 51 23 65 3
14 10 31 14 37 5 6 10 19 12 30 2 10 8 28 12 39 29 75 146 394 150 410 1 6 7
21 12 35 6 14 21 54 33 90 13 36 28 71 33 78 5 6 6 12 2 12 -4 0 -3 6 3 13 5
6 13 28 17 47 4 19 11 40 15 45 3 6 19 46 34 90 15 44 31 89 36 100 10 23 131
355 135 370 1 6 7 24 14 40 18 43 51 135 62 170 5 17 13 39 18 50 9 19 55 144
57 155 0 3 5 16 11 30 6 14 18 48 27 75 9 28 19 57 23 65 3 8 7 17 8 20 1 3 5
12 8 20 4 8 20 53 36 100 16 47 41 115 55 151 14 37 22 69 19 73 -4 3 -1 6 6
6 7 0 9 5 6 10 -3 6 -2 10 2 10 5 0 9 8 10 18 1 9 9 35 19 57 10 22 19 45 20
50 1 6 16 48 34 95 18 47 33 90 34 95 1 6 4 15 7 20 10 17 33 90 31 98 -1 4 3
7 9 7 5 0 8 4 5 8 -3 5 1 20 9 35 8 15 12 27 9 27 -2 0 3 11 12 25 9 14 13 25
9 25 -4 0 -2 7 5 15 7 8 10 15 7 15 -3 0 7 30 22 68 15 37 28 69 29 72 1 7 5
18 42 120 18 47 33 90 34 95 2 6 9 24 15 40 7 17 14 37 16 45 2 8 19 58 38
110 20 52 52 140 72 195 20 55 39 107 42 115 3 8 7 20 9 25 1 6 16 46 33 90
17 44 31 83 31 87 0 5 -325 8 -722 7 -592 0 -733 -3 -776 -15z"/>
<path d="M6132 8558 c-34 -84 -67 -166 -73 -183 -7 -16 -13 -32 -13 -35 -1 -3
-8 -21 -17 -40 -9 -19 -55 -132 -102 -250 -47 -118 -93 -232 -101 -252 -9 -21
-17 -41 -18 -45 0 -5 -14 -39 -30 -76 -42 -98 -51 -121 -53 -133 -2 -9 -27
-68 -75 -179 -5 -11 -29 -74 -55 -140 -26 -66 -52 -126 -57 -132 -6 -7 -7 -13
-3 -13 4 0 3 -6 -2 -12 -6 -7 -16 -31 -23 -53 -7 -22 -17 -49 -23 -60 -6 -11
-12 -25 -13 -31 -1 -6 -9 -27 -17 -45 -9 -19 -26 -59 -37 -89 -12 -30 -27 -68
-35 -85 -31 -72 -77 -189 -81 -208 -2 -11 -9 -24 -15 -27 -6 -4 -10 -10 -9
-14 2 -6 -21 -66 -91 -238 -25 -61 -36 -91 -39 -103 -1 -5 -10 -26 -20 -45
-10 -19 -37 -93 -60 -165 -23 -71 -45 -137 -48 -145 -3 -8 -5 -18 -4 -22 1 -3
-5 -30 -12 -60 -12 -46 -20 -90 -41 -213 -26 -155 -27 -557 -1 -705 3 -14 7
-47 11 -75 3 -27 10 -66 15 -85 5 -19 11 -46 14 -60 14 -80 78 -287 114 -370
50 -116 119 -247 173 -330 34 -52 64 -97 68 -100 3 -3 22 -25 42 -50 47 -58
111 -122 184 -185 32 -27 63 -55 69 -60 6 -6 34 -28 61 -50 28 -22 52 -42 55
-45 3 -3 32 -28 65 -55 33 -28 71 -60 85 -72 14 -12 36 -31 50 -42 14 -11 30
-25 36 -30 7 -5 54 -45 105 -88 52 -42 96 -80 99 -83 3 -3 35 -30 73 -59 37
-30 67 -58 67 -63 0 -4 5 -8 11 -8 6 0 16 -6 23 -12 20 -19 65 -58 126 -108
30 -25 57 -47 60 -50 3 -3 43 -37 90 -75 47 -38 97 -82 113 -97 15 -15 27 -24
27 -20 0 4 4 3 8 -3 4 -5 34 -32 67 -59 33 -28 67 -57 76 -65 9 -9 36 -32 59
-50 23 -19 49 -41 56 -49 8 -7 14 -10 14 -6 0 4 6 1 13 -8 11 -15 222 -194
327 -278 24 -19 50 -42 59 -50 9 -8 37 -32 61 -52 25 -20 57 -47 72 -60 15
-13 40 -33 55 -45 15 -12 43 -36 61 -52 18 -17 35 -31 38 -31 2 0 12 -8 22
-18 10 -9 37 -33 61 -52 23 -19 53 -44 66 -55 33 -28 64 -54 115 -95 24 -19
48 -40 54 -45 6 -6 52 -44 101 -85 50 -40 97 -81 106 -89 9 -9 30 -27 49 -41
18 -14 42 -33 54 -43 11 -11 41 -35 65 -55 24 -21 55 -46 67 -57 13 -11 42
-36 65 -55 23 -19 72 -60 108 -90 36 -30 70 -59 76 -63 5 -4 26 -21 45 -38 19
-17 48 -40 63 -52 16 -12 36 -29 45 -38 10 -8 58 -49 107 -90 50 -41 92 -76
95 -79 5 -5 231 -194 258 -215 7 -5 30 -27 52 -47 22 -20 40 -34 40 -30 0 4
10 -4 23 -16 12 -12 42 -39 67 -60 24 -20 55 -47 68 -60 13 -13 26 -21 28 -19
4 4 -13 55 -37 112 -7 17 -13 32 -14 35 -1 3 -7 18 -13 33 -7 16 -12 34 -12
42 0 7 -5 15 -10 17 -6 2 -12 13 -13 26 0 12 -5 22 -9 22 -4 0 -8 8 -8 18 0
10 -7 28 -16 40 -8 12 -12 22 -9 22 3 0 0 10 -7 23 -6 12 -13 30 -15 41 -2 10
-9 30 -17 45 -8 14 -26 58 -41 96 -37 93 -50 124 -65 160 -8 17 -14 32 -15 35
-4 11 -17 46 -27 70 -50 120 -80 198 -84 215 -2 11 -8 21 -14 23 -5 2 -10 12
-10 22 0 10 -9 35 -19 57 -18 35 -165 402 -166 413 -1 3 -11 27 -23 54 -12 27
-22 51 -22 53 0 3 -6 19 -14 36 -12 28 -26 62 -31 77 -1 3 -7 19 -14 35 -18
45 -22 60 -21 64 1 2 -2 7 -7 10 -5 3 -14 22 -20 41 -13 42 -80 208 -93 232
-6 10 -10 25 -10 33 0 8 -4 15 -10 15 -5 0 -10 7 -10 14 0 8 -59 160 -131 338
-72 178 -131 329 -132 336 0 6 -5 12 -10 12 -6 0 -7 3 -4 6 3 4 1 16 -5 28 -7
11 -13 23 -14 26 -1 7 -15 42 -24 65 -18 42 -75 180 -76 185 -1 7 -23 61 -36
90 -11 25 -24 59 -38 95 -5 11 -15 36 -23 55 -13 32 -114 286 -133 335 -4 11
-7 23 -6 27 1 3 -5 12 -13 18 -8 7 -15 18 -15 24 0 9 -199 515 -229 581 -5 11
-26 63 -46 115 -21 52 -48 119 -61 148 -13 29 -24 57 -24 62 0 6 -4 18 -9 28
-12 23 -27 59 -96 232 -31 80 -63 159 -70 175 -7 17 -30 72 -50 124 -20 52
-45 113 -55 135 -9 23 -43 106 -75 186 -57 143 -68 171 -98 240 -13 32 -30 77
-32 90 0 3 -8 21 -17 40 -9 19 -31 71 -48 115 -18 44 -36 89 -40 100 -5 11
-20 47 -33 80 -13 33 -28 69 -32 80 -5 11 -9 22 -10 25 -1 3 -6 16 -12 30 -58
136 -227 567 -225 573 1 4 -3 7 -8 7 -6 0 -10 7 -10 15 0 8 -7 29 -14 47 -8
18 -31 74 -52 123 -20 50 -45 109 -55 132 -10 24 -19 47 -19 53 0 6 -4 18 -9
28 -11 22 -25 54 -52 122 -12 30 -27 69 -34 85 -8 17 -23 55 -35 85 -12 30
-27 66 -33 80 -6 14 -11 28 -12 33 -2 4 -4 9 -5 12 -1 3 -3 8 -4 13 -3 15 -60
147 -68 156 -4 6 -8 17 -8 26 0 10 -6 30 -14 46 -15 29 -38 82 -41 97 -2 4 -4
9 -5 12 -1 3 -3 8 -5 13 -1 4 -6 18 -12 32 -6 14 -23 57 -38 95 -16 39 -32 74
-36 80 -5 5 -9 14 -9 21 0 6 -8 29 -17 50 -9 22 -17 41 -18 44 -1 3 -7 18 -13
33 -7 16 -12 33 -12 38 0 34 -24 -11 -78 -143z"/>
<path d="M2167 4239 c-1 -4 -20 -9 -42 -12 -22 -3 -52 -10 -65 -15 -14 -5 -29
-11 -35 -12 -27 -7 -47 -15 -137 -58 -54 -25 -98 -49 -98 -53 0 -4 -8 -9 -17
-13 -28 -9 -81 -51 -161 -124 -76 -69 -192 -203 -192 -220 0 -6 -3 -12 -7 -14
-27 -12 -183 -278 -183 -313 0 -7 -7 -18 -15 -25 -8 -7 -15 -19 -15 -27 0 -8
-9 -33 -20 -55 -11 -23 -20 -46 -20 -51 0 -5 -13 -39 -29 -75 -26 -63 -42
-100 -46 -112 -1 -3 -6 -16 -12 -30 -37 -87 -65 -156 -67 -165 -2 -5 -8 -22
-14 -37 -59 -144 -111 -276 -114 -288 -2 -8 -7 -18 -11 -21 -5 -3 -9 -12 -11
-20 -1 -8 -8 -24 -14 -36 -7 -13 -10 -23 -6 -23 3 0 1 -7 -6 -15 -7 -8 -9 -15
-4 -15 5 0 4 -4 -2 -8 -5 -4 -18 -29 -28 -57 -10 -27 -35 -90 -56 -140 -53
-129 -53 -129 -52 -137 1 -5 -3 -8 -10 -8 -6 0 -9 -3 -6 -6 6 -5 -52 -159 -76
-204 -8 -14 -15 -28 -15 -32 -2 -13 -13 -41 -33 -87 -11 -24 -21 -52 -23 -63
-3 -11 -8 -25 -13 -32 -4 -6 -28 -63 -52 -126 -25 -63 -47 -117 -50 -120 -3
-3 -7 -12 -9 -20 -12 -45 -34 -100 -41 -100 -3 0 -7 -6 -7 -14 0 -15 -64 -179
-88 -226 -7 -14 -18 -42 -25 -63 -7 -22 -18 -51 -26 -65 -8 -15 -14 -35 -14
-44 0 -10 -4 -18 -10 -18 -5 0 -10 -6 -10 -13 0 -7 -13 -44 -29 -82 -30 -74
-38 -95 -40 -108 0 -4 -7 -20 -16 -37 -8 -16 -15 -30 -15 -32 0 -8 2153 1
2160 8 4 5 27 56 50 114 23 58 47 116 53 130 5 14 11 30 12 35 3 12 60 154 86
212 10 23 20 48 21 55 2 7 9 19 16 26 7 8 10 18 7 23 -4 5 -2 9 3 9 5 0 12 8
15 18 6 19 36 70 52 88 6 6 24 28 40 50 33 42 55 64 107 109 89 77 216 127
331 130 142 4 262 -45 407 -165 119 -99 151 -125 185 -155 17 -15 64 -54 105
-87 41 -34 82 -68 90 -77 8 -9 32 -28 52 -43 20 -15 42 -33 50 -40 7 -7 38
-33 68 -58 30 -25 66 -55 80 -66 14 -12 50 -42 80 -68 30 -26 60 -50 65 -54 9
-6 123 -102 151 -127 6 -5 28 -23 48 -39 l36 -28 1268 0 c697 1 1284 1 1306 1
l39 1 -29 22 c-66 51 -344 284 -396 332 -21 19 -38 31 -38 28 -1 -4 -8 2 -18
13 -9 11 -51 47 -92 80 -41 33 -84 69 -96 80 -12 11 -30 27 -40 35 -11 8 -100
83 -199 165 -99 83 -188 157 -198 165 -22 18 -89 75 -125 108 -14 12 -28 22
-31 22 -3 0 -22 15 -41 33 -19 18 -60 52 -90 77 -30 25 -57 47 -60 50 -3 3
-30 25 -60 50 -30 25 -73 62 -95 82 -22 21 -44 38 -48 38 -4 0 -18 10 -31 23
-33 32 -111 98 -199 169 -32 26 -30 25 -112 94 -33 28 -71 60 -84 70 -13 11
-37 31 -52 45 -16 14 -42 36 -60 50 -17 13 -41 32 -53 42 -11 11 -38 33 -59
50 -45 37 -93 77 -125 105 -13 11 -42 35 -64 54 -23 18 -60 49 -83 68 -22 19
-63 53 -89 75 -27 22 -60 50 -75 63 -14 13 -42 35 -61 50 -19 15 -44 36 -55
47 -11 11 -52 45 -90 76 -69 55 -86 70 -155 129 -19 17 -48 40 -64 53 -15 12
-41 34 -57 50 -17 15 -32 27 -34 27 -6 0 -48 35 -87 73 -16 15 -33 27 -38 27
-4 0 -10 4 -12 8 -1 5 -46 44 -98 87 -52 43 -102 84 -110 92 -8 7 -24 21 -36
31 -12 9 -41 34 -65 54 -51 43 -174 145 -243 203 -27 22 -54 45 -60 50 -6 6
-36 30 -66 55 -30 25 -57 47 -60 51 -8 9 -92 65 -135 89 -75 43 -130 67 -205
90 -41 13 -82 25 -90 28 -43 14 -328 23 -333 11z"/>
</g>
</svg>
